<svg xmlns="http://www.w3.org/2000/svg" id="sv" width="180" height="180" viewBox="0 0 180 180"><path id="0" fill="#264653" d="M90, 0 A90,90 0 0 1 175.59411560889714,62.18548269103435 L147.06274373926476,71.45698846068957 A60,60 0 0 0 90,30 Z"></path><path id="1" fill="#e76f51" d="M175.59411560889714, 62.18548269103435 A90,90 0 0 1 142.90575578109502,162.80783615265 L125.27050385406335,138.53855743510002 A60,60 0 0 0 147.06274373926476,71.45698846068957 Z"></path><path id="2" fill="#F4A261" d="M142.90575578109502, 162.80783615265 A90,90 0 0 1 37.10695238926231,162.81706883999271 L54.73796825950821,138.54471255999513 A60,60 0 0 0 125.27050385406335,138.53855743510002 Z"></path><path id="3" fill="#e9c46a" d="M37.10695238926231, 162.81706883999271 A90,90 0 0 1 4.401031145731494,62.200422105974894 L32.934020763820996,71.46694807064993 A60,60 0 0 0 54.73796825950821,138.54471255999513 Z"></path><path id="4" fill="#2a9d8f" d="M4.401031145731494, 62.200422105974894 A90,90 0 0 1 89.98429203681187,0.0000013707783779182137 L89.98952802454124,30.000000913852254 A60,60 0 0 0 32.934020763820996,71.46694807064993 Z"></path></svg>